<?xml version="1.0" encoding="utf-8"?>
<!-- Generator: Adobe Illustrator 23.0.1, SVG Export Plug-In . SVG Version: 6.00 Build 0)  -->
<svg version="1.1" id="Layer_1" xmlns="http://www.w3.org/2000/svg" xmlns:xlink="http://www.w3.org/1999/xlink" x="0px" y="0px"
	 viewBox="0 0 1775.5 321.2" style="enable-background:new 0 0 1775.5 321.2;" xml:space="preserve">
<style type="text/css">
	.st0{fill:url(#SVGID_1_);}
	.st1{fill:#44525E;}
</style>
<title>Terminus-Logo-Gradient</title>
<g>
	
		<radialGradient id="SVGID_1_" cx="638.8475" cy="1079.8367" r="236.3" fx="687.1187" fy="895.5272" gradientTransform="matrix(0.7687 0.6396 -0.6524 0.7841 345.6409 -1112.6108)" gradientUnits="userSpaceOnUse">
		<stop  offset="0" style="stop-color:#0098CE"/>
		<stop  offset="0.29" style="stop-color:#0072C6"/>
		<stop  offset="0.58" style="stop-color:#0065AC"/>
		<stop  offset="1" style="stop-color:#00538A"/>
	</radialGradient>
	<path class="st0" d="M129.8,162.9l58.1-20c1.9-0.7,4.1,0.3,4.8,2.2c0.2,0.4,0.2,0.9,0.2,1.3v168.9c0,2.1-1.7,3.8-3.8,3.8l0,0h-58
		c-2.1,0-3.8-1.7-3.8-3.8l0,0V166.4C127.3,164.8,128.3,163.4,129.8,162.9z M0,210v105.3c0,2.1,1.7,3.7,3.8,3.7h57.5
		c2.1,0,3.8-1.7,3.8-3.8l0,0V190.6c0-2.1-1.7-3.8-3.7-3.8c-0.4,0-0.8,0.1-1.2,0.2L2.6,206.4C1.1,206.9,0,208.4,0,210z M190.8,4.6
		l4.9,23.7L2.4,95.2C1,95.8,0,97.2,0,98.7V149c0,2.1,1.7,3.8,3.7,3.8c0.4,0,0.9-0.1,1.3-0.2l204.3-70.4l4.4,19.4
		c0.5,2,2.5,3.3,4.5,2.8c0.7-0.2,1.4-0.6,1.9-1.1L292.8,25c1.4-1.5,1.3-3.9-0.2-5.3c-0.5-0.5-1.1-0.8-1.8-0.9L195.2,0
		c-2-0.4-4,0.9-4.4,2.9C190.7,3.5,190.7,4.1,190.8,4.6z"/>
	<path class="st1" d="M620.4,244.2H500.6c-1.5,0-2.7,1.2-2.7,2.7c0,0.2,0,0.4,0.1,0.6c4.4,18.3,17.5,31.9,43.2,31.9
		c11.9,0,20.3-1.9,26.4-8.4c0.8-0.9,2-1.4,3.2-1.4h44c2.5,0,4.5,2,4.5,4.5c0,0.7-0.1,1.3-0.4,1.9c-13.2,28.7-42.4,45.2-78,45.2
		c-55.5,0-92.2-39.2-92.2-90.8s36.3-91.1,89.3-91.1c58.2,0,93.9,43,86.9,100.9C624.6,242.5,622.7,244.2,620.4,244.2z M498.4,211.9
		h78.7c-2.5-22.1-16.7-32.3-38.8-32.3C515.1,179.5,502.7,193.7,498.4,211.9L498.4,211.9z"/>
	<path class="st1" d="M767,147.1c-0.1-2.5-2.2-4.4-4.6-4.3c-23.5,0.9-42,8.8-56.6,22.7h-0.1v-15.4c0-2.5-2-4.5-4.5-4.5h-38.6l0,0
		c-2.5,0-4.5,2-4.5,4.5v164.2c0,2.5,2,4.5,4.5,4.5h38.6c2.5,0,4.5-2,4.5-4.5v-99.4c0-0.7,0.3-1.3,0.7-1.8
		c14-15.3,32.2-23.1,56.5-25.1c2.3-0.2,4.1-2.1,4.1-4.5v-36.3C767,147.2,767,147.2,767,147.1z"/>
	<path class="st1" d="M1083.6,222.5c-0.04-52.24-32.73-81.2-79.5-81.3c-23.6,0-41.4,7.2-58.4,21.8c-13.1-14.5-32.3-21.8-55.2-21.8
		c-20.7,0-34.1,6.2-45.7,15.9v-7h-0.1c0-2.5-2-4.5-4.5-4.5h-38.6c-2.5,0-4.5,2-4.5,4.5v164.2c0,2.5,2,4.5,4.5,4.5h38.6
		c2.5,0,4.5-2,4.5-4.5V215c0-7.8,3.5-15.2,9.6-20.1c8.5-6.9,19.1-10.6,30-10.4c18.1,0,32.3,8.7,32.3,35.2v94.6c0,2.5,2,4.5,4.5,4.5
		h38.6c2.5,0,4.5-2,4.5-4.5v-94.6c0-2.4-0.1-4.4-0.1-6.7c0-8.6,3.2-15.9,9.7-20.5c0,0,0,0,0.1,0h0c7.9-5.4,17.3-8.2,26.9-8
		c17.1,0,29.7,7.4,33.8,24.7l0.02,0.01c0.89,3.97,1.38,8.34,1.38,13.29v91.7c0,2.5,2,4.5,4.5,4.5h38.6c2.5,0,4.5-2,4.5-4.5
		L1083.6,222.5L1083.6,222.5z"/>
	<path class="st1" d="M1117.5,92.9c-1.8-17.2,12.6-31.8,29.8-31.3c14.9,0.4,27,11.3,28,26.2c1.1,16.5-12.5,30-29,30
		C1131.1,117.8,1119,107.3,1117.5,92.9z M1170.3,150.1v164.2c0,2.5-2,4.5-4.5,4.5h-38.6c-2.5,0-4.5-2-4.5-4.5V150.1
		c0-2.5,2-4.5,4.5-4.5l0,0h38.6C1168.3,145.6,1170.3,147.6,1170.3,150.1z"/>
	<path class="st1" d="M1383.6,224.8v89.5c0,2.5-2,4.5-4.5,4.5h-38.6c-2.5,0-4.5-2-4.5-4.5v-86.6c0-28.3-14.2-43.2-39.2-43.2
		c-3.4,0-6.7,0.5-10,1.4c-17.9,5-29.9,21.7-29.9,40.2v88.2c0,2.5-2,4.5-4.5,4.5h-38.6c-2.5,0-4.5-2-4.5-4.5V150.1
		c0-2.5,2-4.5,4.5-4.5l0,0h38.6c2.5,0,4.5,2,4.5,4.5l0,0v8.5c0,0,0,0,0.1,0c14.1-11.5,31.8-17.6,50-17.4
		C1353.1,141.3,1383.6,173.9,1383.6,224.8z"/>
	<path class="st1" d="M1588.1,148.1v164.2c0,2.5-2,4.5-4.5,4.5h-38.5c-2.5,0-4.5-2-4.5-4.5V303c-14.2,11.2-30.5,18.1-50.1,18.1
		c-46.1,0-76.6-33.8-76.6-84.6V148c0-2.5,2-4.5,4.5-4.5l0,0h38.6c2.5,0,4.5,2,4.5,4.5v85.5c0,28.3,14.2,44.3,39.2,44.3
		c3.4,0,6.8-0.5,10-1.5c17.9-5.2,29.9-22,29.9-40.6v-87.8c0-2.5,2-4.5,4.5-4.5l0,0h38.6C1586.1,143.7,1588.1,145.6,1588.1,148.1z"/>
	<path class="st1" d="M1699.2,282.6c18.2,0,30.9-4.7,30.9-14.5c0-6.9-5.8-12.7-17.8-14.9l-37.4-6.5c-25.4-4.4-51.2-18.1-51.2-50.8
		c0-35.6,30.1-57,74.1-57c30.1,0,69.7,8.1,76,53.3c0.3,2.5-1.4,4.7-3.8,5.1c-0.2,0-0.4,0-0.6,0h-35.1c-2,0-3.8-1.4-4.3-3.4
		c-2.9-13-16.8-17.3-32.2-17.3c-18.2,0-26.9,6.2-26.9,14.5c0,6.5,4.7,14.2,21.4,17.1l31.2,5.1c26.9,4.7,51.9,17.1,51.9,50.5
		c0,38.5-33.4,57.4-77.3,57.4c-36.8,0-73.9-13.2-79.7-59.5c-0.3-2.5,1.4-4.7,3.9-5c0.2,0,0.4,0,0.6,0l35.3,0.3
		c2.1,0,3.8,1.4,4.3,3.5C1666.4,277.2,1680.1,282.6,1699.2,282.6z"/>
	<path class="st1" d="M434.7,311c0.1,0.2,0.2,0.4,0.2,0.7c0,1.1-0.7,2.2-1.8,2.6c-12.7,4.7-26.1,7-39.7,6.9
		c-46.5,0-72.6-29-72.6-73.3v-64.2h-26.5c-2.5,0-4.5-2-4.5-4.5l0,0v-32c0-2.5,2-4.5,4.5-4.5l0,0h26.5l47.6-51.2v51.2h53
		c2.5,0,4.5,2,4.5,4.5l0,0v32c0,2.5-2,4.5-4.5,4.5l0,0h-53v64.2c0,20.3,12.7,30,30.5,29.4c6.8-0.2,13.6-1.2,20.2-3.2
		c0.4-0.1,0.9-0.2,1.3-0.1c1.4,0.3,2.6,1.3,3,2.7L434.7,311z"/>
</g>
</svg>
